<?xml version="1.0" encoding="UTF-8" standalone="no"?>
<!-- Created with Inkscape (http://www.inkscape.org/) -->

<svg
   width="128mm"
   height="128mm"
   viewBox="0 0 128 128"
   version="1.1"
   id="svg5"
   inkscape:version="1.1 (c68e22c387, 2021-05-23)"
   sodipodi:docname="AdministrarIcon.svg"
   inkscape:export-filename="D:\repos\HSA_Coleta\AdministrarIcon.png"
   inkscape:export-xdpi="96"
   inkscape:export-ydpi="96"
   xmlns:inkscape="http://www.inkscape.org/namespaces/inkscape"
   xmlns:sodipodi="http://sodipodi.sourceforge.net/DTD/sodipodi-0.dtd"
   xmlns="http://www.w3.org/2000/svg"
   xmlns:svg="http://www.w3.org/2000/svg">
  <sodipodi:namedview
     id="namedview7"
     pagecolor="#ffffff"
     bordercolor="#666666"
     borderopacity="1.0"
     inkscape:pageshadow="2"
     inkscape:pageopacity="0.0"
     inkscape:pagecheckerboard="0"
     inkscape:document-units="mm"
     showgrid="false"
     inkscape:zoom="0.52410025"
     inkscape:cx="389.23851"
     inkscape:cy="208.92949"
     inkscape:window-width="2560"
     inkscape:window-height="1017"
     inkscape:window-x="1358"
     inkscape:window-y="-8"
     inkscape:window-maximized="1"
     inkscape:current-layer="layer1"
     showguides="true"
     inkscape:guide-bbox="true">
    <sodipodi:guide
       position="41.499999,138.70913"
       orientation="-1,0"
       id="guide1473"
       inkscape:label=""
       inkscape:locked="false"
       inkscape:color="rgb(0,0,255)" />
    <sodipodi:guide
       position="-35.697114,77.999998"
       orientation="0,1"
       id="guide1867"
       inkscape:label=""
       inkscape:locked="false"
       inkscape:color="rgb(0,0,255)" />
  </sodipodi:namedview>
  <defs
     id="defs2" />
  <g
     inkscape:label="Camada 1"
     inkscape:groupmode="layer"
     id="layer1">
    <path
       d="m 73.600002,12.799997 c 5.299997,0 9.600003,4.298 9.600003,9.6 v 9.6 h 10.139997 c 3.400002,0 6.48,1.34 9.059998,3.74 l 15.46,15.460001 c 2.4,2.4 3.74,5.659999 3.74,9.06 v 22.940001 c 3.54,0 6.4,2.859999 6.4,6.400003 0,3.539996 -2.86,6.400002 -6.4,6.400002 h -6.4 C 115.2,106.6 106.6,115.2 96.000003,115.2 c -10.779999,0 -19.2,-8.6 -19.2,-19.199996 H 51.200001 c 0,10.599996 -8.599999,19.199996 -19.2,19.199996 -10.779999,0 -19.2,-8.6 -19.2,-19.199996 H 9.6000012 C 4.2980011,96.000004 1.05e-6,91.699998 1.05e-6,86.399997 v -64 c 0,-5.302 4.29799995,-9.6 9.60000015,-9.6 z m 9.600003,32 v 19.2 H 108.8 V 60.259998 L 93.340002,44.799997 Z m -51.200004,41.6 c -5.3,0 -9.6,4.300006 -9.6,9.600007 0,5.299996 4.3,9.599996 9.6,9.599996 5.300001,0 9.6,-4.3 9.6,-9.599996 0,-5.300001 -4.299999,-9.600007 -9.6,-9.600007 z M 96.000003,105.6 C 101.3,105.6 105.6,101.3 105.6,96.000004 c 0,-5.300001 -4.3,-9.600007 -9.599997,-9.600007 -5.300001,0 -9.6,4.300006 -9.6,9.600007 0,5.299996 4.299999,9.599996 9.6,9.599996 z"
       id="path902"
       style="stroke-width:0.2;stroke:none;fill:#007fa3;fill-opacity:1" />
    <path
       d="m 60.975432,45.77939 -27.359917,27.348185 -3.977278,-3.977276 0.410634,-0.410633 h -5.408629 c -1.032449,0 -1.877181,-0.844731 -1.877181,-1.877184 V 61.453855 L 22.3536,61.864488 c -0.554941,0.563154 -0.962055,1.243633 -1.183797,1.994505 l -2.696102,9.174725 9.170032,-2.698449 c 0.64528,-0.222916 1.43135,-0.633549 1.994504,-1.18497 l 3.977278,3.977276 c -1.220168,1.220169 -2.733645,2.123561 -4.387911,2.604588 l -14.117576,4.153265 c -0.987868,0.29331 -2.056687,0.02345 -2.785269,-0.809532 -0.728604,-0.621817 -1.001006,-1.689464 -0.710278,-2.686717 L 15.76704,62.275122 c 0.488068,-1.654267 1.383248,-3.167744 2.60459,-4.387912 L 45.723335,30.531985 Z m 8.329995,-18.953665 c 2.933093,2.931922 2.933093,7.690577 0,10.623673 L 63.62695,43.127872 48.374854,27.87812 54.053327,22.199646 c 2.933097,-2.932861 7.696443,-2.932861 10.629538,0 z"
       id="path2555"
       style="fill:#ffffff;fill-opacity:1;stroke-width:0.117323" />
  </g>
</svg>
